# xmcd
#
# Track frame offsets:
#	150
#	18356
#	33136
#	52158
#	70046
#	87687
#	105812
#	130747
#	150118
#	168115
#	179200
#	196781
#	214304
#	233327
#	251062
#
# Disc length: 3650 seconds
#
# Revision: 1
# Processed by: cddbd v1.5.1PL2 Copyright (c) Steve Scherf et al.
# Submitted via: audiograbber 1.81.02
#
DISCID=ba0e400f
DTITLE=Márcio Moreno - Ao vivo em Salvador Volume 3
DYEAR=2005
DGENRE=Arrocha
TTITLE0=Pirraça
TTITLE1=Rala e mexe
TTITLE2=Puxão de cabelo
TTITLE3=Vou meter
TTITLE4=Mexe - Remexe
TTITLE5=Sò pensando em você
TTITLE6=Fui eu
TTITLE7=Mordida de amor
TTITLE8=Onde tudo começou
TTITLE9=Chamega e Arrocha
TTITLE10=A distáncia
TTITLE11=A tòrtura
TTITLE12=Bonus Remix - Pirraça
TTITLE13=Bonus Remix - Rala e mexe
TTITLE14=Bonus Remix - Puxão de cabelo
EXTD=
EXTT0=
EXTT1=
EXTT2=
EXTT3=
EXTT4=
EXTT5=
EXTT6=
EXTT7=
EXTT8=
EXTT9=
EXTT10=
EXTT11=
EXTT12=
EXTT13=
EXTT14=
PLAYORDER=
